<svg xmlns="http://www.w3.org/2000/svg" width="16" height="16.003" viewBox="0 0 16 16.003">
  <g id="inst" transform="translate(-0.449)">
    <path id="Контур_3" data-name="Контур 3" d="M16.409,4.7a5.848,5.848,0,0,0-.372-1.941A4.1,4.1,0,0,0,13.695.422,5.863,5.863,0,0,0,11.754.05C10.9.009,10.625,0,8.452,0s-2.445.009-3.3.047A5.849,5.849,0,0,0,3.213.419a3.9,3.9,0,0,0-1.419.925A3.94,3.94,0,0,0,.871,2.76,5.863,5.863,0,0,0,.5,4.7C.459,5.558.449,5.83.449,8S.459,10.448.5,11.3a5.847,5.847,0,0,0,.372,1.941A4.1,4.1,0,0,0,3.21,15.584a5.863,5.863,0,0,0,1.941.372C6,15.994,6.277,16,8.449,16s2.445-.009,3.3-.047a5.846,5.846,0,0,0,1.941-.372,4.093,4.093,0,0,0,2.342-2.341A5.867,5.867,0,0,0,16.4,11.3c.037-.853.047-1.125.047-3.3S16.446,5.558,16.409,4.7Zm-1.441,6.534a4.386,4.386,0,0,1-.275,1.485,2.655,2.655,0,0,1-1.519,1.519,4.4,4.4,0,0,1-1.485.275c-.844.038-1.1.047-3.232.047s-2.392-.009-3.233-.047a4.384,4.384,0,0,1-1.485-.275,2.463,2.463,0,0,1-.919-.6,2.488,2.488,0,0,1-.6-.919,4.4,4.4,0,0,1-.275-1.485c-.038-.844-.047-1.1-.047-3.233s.009-2.392.047-3.232a4.384,4.384,0,0,1,.275-1.485,2.432,2.432,0,0,1,.6-.919,2.484,2.484,0,0,1,.919-.6A4.4,4.4,0,0,1,5.226,1.5c.844-.037,1.1-.047,3.232-.047s2.392.009,3.233.047a4.386,4.386,0,0,1,1.485.275,2.461,2.461,0,0,1,.919.6,2.487,2.487,0,0,1,.6.919,4.4,4.4,0,0,1,.275,1.485c.037.844.047,1.1.047,3.232S15,10.395,14.967,11.239Zm0,0" fill="#333"/>
    <path id="Контур_4" data-name="Контур 4" d="M129.06,124.5a4.111,4.111,0,1,0,4.111,4.111A4.112,4.112,0,0,0,129.06,124.5Zm0,6.778a2.667,2.667,0,1,1,2.667-2.667A2.667,2.667,0,0,1,129.06,131.278Zm0,0" transform="translate(-120.608 -120.608)" fill="#333"/>
    <path id="Контур_5" data-name="Контур 5" d="M364.369,89.561a.96.96,0,1,1-.96-.96A.96.96,0,0,1,364.369,89.561Zm0,0" transform="translate(-350.683 -85.832)" fill="#333"/>
  </g>
</svg>
