<svg width="160" height="480" viewBox="0 0 160 480" fill="none" xmlns="http://www.w3.org/2000/svg">
<path d="M118.031 145.785C114.504 144.891 112.027 141.727 112 138.09V8C112 3.58203 108.418 0 104 0H56C51.582 0 48 3.58203 48 8V138.09C47.9727 141.73 45.4883 144.891 41.9609 145.785C17.2539 152.184 -0.00390559 174.477 6.62989e-07 200V472C6.62989e-07 476.418 3.58203 480 8 480H152C156.418 480 160 476.418 160 472V200C160 174.477 142.742 152.18 118.031 145.785ZM64 16H96V32H64V16ZM144 376H16V264H144V376ZM16 464V392H144V464H16ZM144 248H16V200C15.9922 181.766 28.3164 165.836 45.9688 161.266C56.5547 158.547 63.9688 149.02 64 138.09V48H96V138.09C96.0195 149.023 103.434 158.566 114.023 161.289C131.668 165.855 143.996 181.773 144 200V248Z" fill="black"/>
</svg>
